<svg height="512" viewBox="0 0 512 512" width="512" xmlns="http://www.w3.org/2000/svg"><g id="Flat"><circle cx="256" cy="256" fill="#fc7" r="232"/><path d="m216 192a32.004 32.004 0 0 1 -32 32h-192v-88h32a47.99365 47.99365 0 0 1 95.55005-6.47c.01 0 .01 0 .02-.01a24.01 24.01 0 0 1 31.05983 30.48h33.37012a32.004 32.004 0 0 1 32 32z" fill="#e6e6e6"/><path d="m496 80v128h-112a23.9986 23.9986 0 0 1 -22.62012-16 23.597 23.597 0 0 1 -1.37988-8 24.0405 24.0405 0 0 1 1.37012-8h-25.37012a32 32 0 0 1 0-64h24.67993a47.89819 47.89819 0 0 1 -.67993-8 48.00689 48.00689 0 0 1 89.58008-24z" fill="#e6e6e6"/><path d="m488 488h-464a699.77594 699.77594 0 0 0 188.73-233.45l3.27-6.55h80l3.27 6.55a699.77594 699.77594 0 0 0 188.73 233.45z" fill="#3ea7ff"/><path d="m383 384h-7a79.99989 79.99989 0 0 1 -64-32l-.84459 2.53377a95.85112 95.85112 0 0 1 -23.15541 37.46623l-2.95064-1.96709a73.73247 73.73247 0 0 1 -29.04936-38.03291l-.00028.00083a73.73006 73.73006 0 0 1 -29.04837 38.03161l-2.95135 1.96756a95.85112 95.85112 0 0 1 -23.15539-37.46621l-.84461-2.53379a79.99991 79.99991 0 0 1 -64 32h-7a699.38293 699.38293 0 0 0 83.73-129.45l3.27-6.55h80l3.27 6.55a699.38293 699.38293 0 0 0 83.73 129.45z" fill="#e6e6e6"/><g fill="#b3b3b3"><path d="m230.77 337.64-17.97 23.96c-1.86011 2.47009-3.83008 4.85-5.90991 7.11a95.911 95.911 0 0 1 -6.05-14.17993l-.84009-2.53007 17.97-23.96z"/><path d="m272 328v26.6l-.82007 2.46008a89.54659 89.54659 0 0 1 -5.83984 13.60986 73.35952 73.35952 0 0 1 -9.34009-18.66994v-24z"/><path d="m312 352-.84009 2.53a95.911 95.911 0 0 1 -6.05 14.17993c-2.07983-2.26-4.0498-4.63989-5.90991-7.11l-17.97-23.96 12.8-9.6z"/><path d="m400 142.8h-16a32.05885 32.05885 0 0 0 -23.32007-30.8 47.89819 47.89819 0 0 1 -.67993-8 48.4214 48.4214 0 0 1 .73-8.4 48.07909 48.07909 0 0 1 39.27 47.2z"/><path d="m392 176v16h-30.62012a23.597 23.597 0 0 1 -1.37988-8 24.0405 24.0405 0 0 1 1.37012-8z"/><path d="m408 176h16v16h-16z"/><path d="m472 104a63.81379 63.81379 0 0 1 -3.6499 21.34l-15.0801-5.34a48.141 48.141 0 0 0 -3.68994-40h17.76a63.9768 63.9768 0 0 1 4.65994 24z"/><path d="m136 136a63.8966 63.8966 0 0 1 -16.3 42.67l-11.92-10.67a47.92906 47.92906 0 0 0 12.22-32 49.16162 49.16162 0 0 0 -.42993-6.47v-.01a24.05922 24.05922 0 0 1 16.07007-.27 62.82541 62.82541 0 0 1 .35986 6.75z"/></g><path d="m199.42993 402.97a146.00634 146.00634 0 0 1 -54.83984 67.58008l-26.17017 17.44992h-28.84985l46.14993-30.76a130.09248 130.09248 0 0 0 48.8501-60.21z" fill="#2b7cd4"/><path d="m422.42993 488h-28.84985l-26.17017-17.44995a146.00634 146.00634 0 0 1 -54.83984-67.58005l14.85986-5.94a130.09248 130.09248 0 0 0 48.85007 60.21z" fill="#2b7cd4"/><path d="m325.33008 488h-25.71a88.48194 88.48194 0 0 1 -27.62008-64v-8h16v8a72.36429 72.36429 0 0 0 28.80005 57.6z" fill="#2b7cd4"/><path d="m248 416v8a88.48194 88.48194 0 0 1 -27.62012 64h-25.71l8.53-6.4a72.36429 72.36429 0 0 0 28.80012-57.6v-8z" fill="#2b7cd4"/></g></svg>