<?xml version="1.0" ?><svg viewBox="0 0 24 24" xmlns="http://www.w3.org/2000/svg" xmlns:xlink="http://www.w3.org/1999/xlink"><defs><linearGradient gradientUnits="userSpaceOnUse" id="a" x1="4.49556" x2="19.50444" y1="4.38138" y2="19.39027"><stop offset="0" stop-color="#fff" stop-opacity="0"/><stop offset="1" stop-color="#fff" stop-opacity="0.1"/></linearGradient></defs><title/><path d="M16.89905,12.02832a1.47808,1.47808,0,0,0-.93512-1.94739,4.27226,4.27226,0,0,0,.20447-3.72229c.14642.05622.25018.09851.25445.10034a.5.5,0,1,0,.39649-.918,13.71291,13.71291,0,0,0-1.5257-.52857L15.959,1.13428a.50086.50086,0,0,0-.19043-.48242C15.626.543,14.77246,0,12,0S8.374.543,8.23145.65186a.50086.50086,0,0,0-.19043.48242l.665,3.87829A13.712,13.712,0,0,0,7.18066,5.541a.5.5,0,1,0,.39649.918c.00427-.00183.108-.04412.25445-.10034a4.27226,4.27226,0,0,0,.20447,3.72229A1.47808,1.47808,0,0,0,7.101,12.02832a7.00006,7.00006,0,1,0,9.7981,0Z"/><path d="M14,13h1v1.69092l-.27637-.13819a.50056.50056,0,0,0-.44726,0L14,14.69092Z" fill="#2979ff"/><polygon opacity="0.2" points="14.744 13 14.744 14.563 15 14.691 15 13 14.744 13"/><polygon fill="#fff" opacity="0.2" points="14.256 13 14 13 14 14.691 14.256 14.563 14.256 13"/><path d="M12,5.5a10.94476,10.94476,0,0,1,2.78217.414A3.3567,3.3567,0,0,1,14.83063,10H9.16937a3.3567,3.3567,0,0,1,.04846-4.086A10.94476,10.94476,0,0,1,12,5.5Z" fill="#fff"/><path d="M15.04688,6.32446a3.34347,3.34347,0,0,1,.18841,1.10541A3.25588,3.25588,0,0,1,15.07086,8.451a1.44261,1.44261,0,0,1-1.37292.97888H8.90466a3.74781,3.74781,0,0,1-.219-.35358A3.58943,3.58943,0,0,0,9.16937,10h5.66126a3.32341,3.32341,0,0,0,.21625-3.67554Z" opacity="0.2"/><path d="M8.5,11h7a.50065.50065,0,0,1,.5.5.48656.48656,0,0,1-.094.27545l-.01148.00873a.46632.46632,0,0,0-.03131.05457A.495.495,0,0,1,15.5,12h-7a.495.495,0,0,1-.3631-.16113.4696.4696,0,0,0-.03143-.05469l-.01141-.00879A.48636.48636,0,0,1,8,11.5.50065.50065,0,0,1,8.5,11Z" fill="#2979ff"/><path d="M8.39368,11.83936a.50065.50065,0,0,1,.5-.5h7a.47253.47253,0,0,1,.077.01556A.49481.49481,0,0,0,15.5,11h-7a.50065.50065,0,0,0-.5.5.48636.48636,0,0,0,.09406.27539l.01141.00879a.4696.4696,0,0,1,.03143.05469.49773.49773,0,0,0,.28272.14361A.42308.42308,0,0,1,8.39368,11.83936Z" fill="#fff" opacity="0.2"/><path d="M12,23A5.98219,5.98219,0,0,1,7.74908,12.79083,1.48287,1.48287,0,0,0,8.5,13H13v2.5a.50019.50019,0,0,0,.72363.44727L14.5,15.55908l.77637.38819A.50154.50154,0,0,0,15.5,16a.50031.50031,0,0,0,.5-.5V12.9079a1.48211,1.48211,0,0,0,.25092-.11707A5.98219,5.98219,0,0,1,12,23Z" fill="#fff"/><path d="M17.46936,14.56976a5.87375,5.87375,0,0,1,.03064.59565,5.99646,5.99646,0,0,1-11.46722,2.4588A5.99988,5.99988,0,0,0,18,17,5.906,5.906,0,0,0,17.46936,14.56976Z" opacity="0.2"/><circle cx="12" cy="15.5" r="0.5"/><circle cx="12" cy="18" r="0.5"/><circle cx="10.5" cy="6.5" r="0.5"/><circle cx="13.5" cy="6.5" r="0.5"/><path d="M9.0918,1.34229A9.178,9.178,0,0,1,12,1a9.23861,9.23861,0,0,1,2.9082.34033l-.58868,3.43183A11.11441,11.11441,0,0,0,12,4.5a11.114,11.114,0,0,0-2.32.27222Z" fill="#1a1a1a"/><path d="M9.8562,3.07635a1.06919,1.06919,0,0,1,.91608-1.24328,13.88306,13.88306,0,0,1,1.81952-.10529,12.38545,12.38545,0,0,1,2.221.16858l.09539-.556A9.23861,9.23861,0,0,0,12,1a9.178,9.178,0,0,0-2.9082.34229l.58825,3.42993c.14386-.031.30341-.05072.45356-.07819Z" fill="#fff" opacity="0.2"/><path d="M12,9a.48947.48947,0,0,0,.12109-.01514l2-.5A.49988.49988,0,0,0,14,7.5H12a.49971.49971,0,0,0-.5.5v.5A.50025.50025,0,0,0,12,9Z" fill="#ff6d00"/><path d="M12,8.75v-.5a.49971.49971,0,0,1,.5-.5h1.92981A.49764.49764,0,0,0,14,7.5H12a.49971.49971,0,0,0-.5.5v.5a.47606.47606,0,0,0,.56879.49139A.49209.49209,0,0,1,12,8.75Z" fill="#fff" opacity="0.2"/><path d="M16.89905,12.02832a1.47808,1.47808,0,0,0-.93512-1.94739,4.27226,4.27226,0,0,0,.20447-3.72229c.14642.05622.25018.09851.25445.10034a.5.5,0,1,0,.39649-.918,13.71291,13.71291,0,0,0-1.5257-.52857L15.959,1.13428a.50086.50086,0,0,0-.19043-.48242C15.626.543,14.77246,0,12,0S8.374.543,8.23145.65186a.50086.50086,0,0,0-.19043.48242l.665,3.87829A13.712,13.712,0,0,0,7.18066,5.541a.5.5,0,1,0,.39649.918c.00427-.00183.108-.04412.25445-.10034a4.27226,4.27226,0,0,0,.20447,3.72229A1.47808,1.47808,0,0,0,7.101,12.02832a7.00006,7.00006,0,1,0,9.7981,0Z" fill="url(#a)"/></svg>